%TF.GenerationSoftware,KiCad,Pcbnew,10.0.1*%
%TF.CreationDate,2026-05-06T14:39:40+05:30*%
%TF.ProjectId,devboard,64657662-6f61-4726-942e-6b696361645f,rev?*%
%TF.SameCoordinates,Original*%
%TF.FileFunction,Legend,Top*%
%TF.FilePolarity,Positive*%
%FSLAX46Y46*%
G04 Gerber Fmt 4.6, Leading zero omitted, Abs format (unit mm)*
G04 Created by KiCad (PCBNEW 10.0.1) date 2026-05-06 14:39:40*
%MOMM*%
%LPD*%
G01*
G04 APERTURE LIST*
%ADD10C,0.150000*%
%ADD11C,0.120000*%
G04 APERTURE END LIST*
D10*
X181563180Y-76011066D02*
X181610800Y-76058685D01*
X181610800Y-76058685D02*
X181658419Y-76201542D01*
X181658419Y-76201542D02*
X181658419Y-76296780D01*
X181658419Y-76296780D02*
X181610800Y-76439637D01*
X181610800Y-76439637D02*
X181515561Y-76534875D01*
X181515561Y-76534875D02*
X181420323Y-76582494D01*
X181420323Y-76582494D02*
X181229847Y-76630113D01*
X181229847Y-76630113D02*
X181086990Y-76630113D01*
X181086990Y-76630113D02*
X180896514Y-76582494D01*
X180896514Y-76582494D02*
X180801276Y-76534875D01*
X180801276Y-76534875D02*
X180706038Y-76439637D01*
X180706038Y-76439637D02*
X180658419Y-76296780D01*
X180658419Y-76296780D02*
X180658419Y-76201542D01*
X180658419Y-76201542D02*
X180706038Y-76058685D01*
X180706038Y-76058685D02*
X180753657Y-76011066D01*
X180658419Y-75106304D02*
X180658419Y-75582494D01*
X180658419Y-75582494D02*
X181134609Y-75630113D01*
X181134609Y-75630113D02*
X181086990Y-75582494D01*
X181086990Y-75582494D02*
X181039371Y-75487256D01*
X181039371Y-75487256D02*
X181039371Y-75249161D01*
X181039371Y-75249161D02*
X181086990Y-75153923D01*
X181086990Y-75153923D02*
X181134609Y-75106304D01*
X181134609Y-75106304D02*
X181229847Y-75058685D01*
X181229847Y-75058685D02*
X181467942Y-75058685D01*
X181467942Y-75058685D02*
X181563180Y-75106304D01*
X181563180Y-75106304D02*
X181610800Y-75153923D01*
X181610800Y-75153923D02*
X181658419Y-75249161D01*
X181658419Y-75249161D02*
X181658419Y-75487256D01*
X181658419Y-75487256D02*
X181610800Y-75582494D01*
X181610800Y-75582494D02*
X181563180Y-75630113D01*
X181588580Y-76112666D02*
X181636200Y-76160285D01*
X181636200Y-76160285D02*
X181683819Y-76303142D01*
X181683819Y-76303142D02*
X181683819Y-76398380D01*
X181683819Y-76398380D02*
X181636200Y-76541237D01*
X181636200Y-76541237D02*
X181540961Y-76636475D01*
X181540961Y-76636475D02*
X181445723Y-76684094D01*
X181445723Y-76684094D02*
X181255247Y-76731713D01*
X181255247Y-76731713D02*
X181112390Y-76731713D01*
X181112390Y-76731713D02*
X180921914Y-76684094D01*
X180921914Y-76684094D02*
X180826676Y-76636475D01*
X180826676Y-76636475D02*
X180731438Y-76541237D01*
X180731438Y-76541237D02*
X180683819Y-76398380D01*
X180683819Y-76398380D02*
X180683819Y-76303142D01*
X180683819Y-76303142D02*
X180731438Y-76160285D01*
X180731438Y-76160285D02*
X180779057Y-76112666D01*
X180683819Y-75779332D02*
X180683819Y-75112666D01*
X180683819Y-75112666D02*
X181683819Y-75541237D01*
X177016580Y-96400857D02*
X177064200Y-96448476D01*
X177064200Y-96448476D02*
X177111819Y-96591333D01*
X177111819Y-96591333D02*
X177111819Y-96686571D01*
X177111819Y-96686571D02*
X177064200Y-96829428D01*
X177064200Y-96829428D02*
X176968961Y-96924666D01*
X176968961Y-96924666D02*
X176873723Y-96972285D01*
X176873723Y-96972285D02*
X176683247Y-97019904D01*
X176683247Y-97019904D02*
X176540390Y-97019904D01*
X176540390Y-97019904D02*
X176349914Y-96972285D01*
X176349914Y-96972285D02*
X176254676Y-96924666D01*
X176254676Y-96924666D02*
X176159438Y-96829428D01*
X176159438Y-96829428D02*
X176111819Y-96686571D01*
X176111819Y-96686571D02*
X176111819Y-96591333D01*
X176111819Y-96591333D02*
X176159438Y-96448476D01*
X176159438Y-96448476D02*
X176207057Y-96400857D01*
X177111819Y-95448476D02*
X177111819Y-96019904D01*
X177111819Y-95734190D02*
X176111819Y-95734190D01*
X176111819Y-95734190D02*
X176254676Y-95829428D01*
X176254676Y-95829428D02*
X176349914Y-95924666D01*
X176349914Y-95924666D02*
X176397533Y-96019904D01*
X177111819Y-94496095D02*
X177111819Y-95067523D01*
X177111819Y-94781809D02*
X176111819Y-94781809D01*
X176111819Y-94781809D02*
X176254676Y-94877047D01*
X176254676Y-94877047D02*
X176349914Y-94972285D01*
X176349914Y-94972285D02*
X176397533Y-95067523D01*
X175299609Y-104511428D02*
X175299609Y-104987619D01*
X174966276Y-103987619D02*
X175299609Y-104511428D01*
X175299609Y-104511428D02*
X175632942Y-103987619D01*
X176490085Y-104987619D02*
X175918657Y-104987619D01*
X176204371Y-104987619D02*
X176204371Y-103987619D01*
X176204371Y-103987619D02*
X176109133Y-104130476D01*
X176109133Y-104130476D02*
X176013895Y-104225714D01*
X176013895Y-104225714D02*
X175918657Y-104273333D01*
X172718505Y-109674819D02*
X172718505Y-108674819D01*
X172718505Y-108674819D02*
X172956600Y-108674819D01*
X172956600Y-108674819D02*
X173099457Y-108722438D01*
X173099457Y-108722438D02*
X173194695Y-108817676D01*
X173194695Y-108817676D02*
X173242314Y-108912914D01*
X173242314Y-108912914D02*
X173289933Y-109103390D01*
X173289933Y-109103390D02*
X173289933Y-109246247D01*
X173289933Y-109246247D02*
X173242314Y-109436723D01*
X173242314Y-109436723D02*
X173194695Y-109531961D01*
X173194695Y-109531961D02*
X173099457Y-109627200D01*
X173099457Y-109627200D02*
X172956600Y-109674819D01*
X172956600Y-109674819D02*
X172718505Y-109674819D01*
X173670886Y-108770057D02*
X173718505Y-108722438D01*
X173718505Y-108722438D02*
X173813743Y-108674819D01*
X173813743Y-108674819D02*
X174051838Y-108674819D01*
X174051838Y-108674819D02*
X174147076Y-108722438D01*
X174147076Y-108722438D02*
X174194695Y-108770057D01*
X174194695Y-108770057D02*
X174242314Y-108865295D01*
X174242314Y-108865295D02*
X174242314Y-108960533D01*
X174242314Y-108960533D02*
X174194695Y-109103390D01*
X174194695Y-109103390D02*
X173623267Y-109674819D01*
X173623267Y-109674819D02*
X174242314Y-109674819D01*
X173253428Y-108933904D02*
X173710571Y-108933904D01*
X173481999Y-108933904D02*
X173481999Y-109733904D01*
X173481999Y-109733904D02*
X173558190Y-109619619D01*
X173558190Y-109619619D02*
X173634380Y-109543428D01*
X173634380Y-109543428D02*
X173710571Y-109505333D01*
X167382866Y-64656619D02*
X167382866Y-65370904D01*
X167382866Y-65370904D02*
X167335247Y-65513761D01*
X167335247Y-65513761D02*
X167240009Y-65609000D01*
X167240009Y-65609000D02*
X167097152Y-65656619D01*
X167097152Y-65656619D02*
X167001914Y-65656619D01*
X167811438Y-64751857D02*
X167859057Y-64704238D01*
X167859057Y-64704238D02*
X167954295Y-64656619D01*
X167954295Y-64656619D02*
X168192390Y-64656619D01*
X168192390Y-64656619D02*
X168287628Y-64704238D01*
X168287628Y-64704238D02*
X168335247Y-64751857D01*
X168335247Y-64751857D02*
X168382866Y-64847095D01*
X168382866Y-64847095D02*
X168382866Y-64942333D01*
X168382866Y-64942333D02*
X168335247Y-65085190D01*
X168335247Y-65085190D02*
X167763819Y-65656619D01*
X167763819Y-65656619D02*
X168382866Y-65656619D01*
X173583695Y-87821419D02*
X173583695Y-88630942D01*
X173583695Y-88630942D02*
X173631314Y-88726180D01*
X173631314Y-88726180D02*
X173678933Y-88773800D01*
X173678933Y-88773800D02*
X173774171Y-88821419D01*
X173774171Y-88821419D02*
X173964647Y-88821419D01*
X173964647Y-88821419D02*
X174059885Y-88773800D01*
X174059885Y-88773800D02*
X174107504Y-88726180D01*
X174107504Y-88726180D02*
X174155123Y-88630942D01*
X174155123Y-88630942D02*
X174155123Y-87821419D01*
X174536076Y-87821419D02*
X175155123Y-87821419D01*
X175155123Y-87821419D02*
X174821790Y-88202371D01*
X174821790Y-88202371D02*
X174964647Y-88202371D01*
X174964647Y-88202371D02*
X175059885Y-88249990D01*
X175059885Y-88249990D02*
X175107504Y-88297609D01*
X175107504Y-88297609D02*
X175155123Y-88392847D01*
X175155123Y-88392847D02*
X175155123Y-88630942D01*
X175155123Y-88630942D02*
X175107504Y-88726180D01*
X175107504Y-88726180D02*
X175059885Y-88773800D01*
X175059885Y-88773800D02*
X174964647Y-88821419D01*
X174964647Y-88821419D02*
X174678933Y-88821419D01*
X174678933Y-88821419D02*
X174583695Y-88773800D01*
X174583695Y-88773800D02*
X174536076Y-88726180D01*
X181486980Y-76188866D02*
X181534600Y-76236485D01*
X181534600Y-76236485D02*
X181582219Y-76379342D01*
X181582219Y-76379342D02*
X181582219Y-76474580D01*
X181582219Y-76474580D02*
X181534600Y-76617437D01*
X181534600Y-76617437D02*
X181439361Y-76712675D01*
X181439361Y-76712675D02*
X181344123Y-76760294D01*
X181344123Y-76760294D02*
X181153647Y-76807913D01*
X181153647Y-76807913D02*
X181010790Y-76807913D01*
X181010790Y-76807913D02*
X180820314Y-76760294D01*
X180820314Y-76760294D02*
X180725076Y-76712675D01*
X180725076Y-76712675D02*
X180629838Y-76617437D01*
X180629838Y-76617437D02*
X180582219Y-76474580D01*
X180582219Y-76474580D02*
X180582219Y-76379342D01*
X180582219Y-76379342D02*
X180629838Y-76236485D01*
X180629838Y-76236485D02*
X180677457Y-76188866D01*
X180582219Y-75331723D02*
X180582219Y-75522199D01*
X180582219Y-75522199D02*
X180629838Y-75617437D01*
X180629838Y-75617437D02*
X180677457Y-75665056D01*
X180677457Y-75665056D02*
X180820314Y-75760294D01*
X180820314Y-75760294D02*
X181010790Y-75807913D01*
X181010790Y-75807913D02*
X181391742Y-75807913D01*
X181391742Y-75807913D02*
X181486980Y-75760294D01*
X181486980Y-75760294D02*
X181534600Y-75712675D01*
X181534600Y-75712675D02*
X181582219Y-75617437D01*
X181582219Y-75617437D02*
X181582219Y-75426961D01*
X181582219Y-75426961D02*
X181534600Y-75331723D01*
X181534600Y-75331723D02*
X181486980Y-75284104D01*
X181486980Y-75284104D02*
X181391742Y-75236485D01*
X181391742Y-75236485D02*
X181153647Y-75236485D01*
X181153647Y-75236485D02*
X181058409Y-75284104D01*
X181058409Y-75284104D02*
X181010790Y-75331723D01*
X181010790Y-75331723D02*
X180963171Y-75426961D01*
X180963171Y-75426961D02*
X180963171Y-75617437D01*
X180963171Y-75617437D02*
X181010790Y-75712675D01*
X181010790Y-75712675D02*
X181058409Y-75760294D01*
X181058409Y-75760294D02*
X181153647Y-75807913D01*
X179804219Y-91022466D02*
X179328028Y-91355799D01*
X179804219Y-91593894D02*
X178804219Y-91593894D01*
X178804219Y-91593894D02*
X178804219Y-91212942D01*
X178804219Y-91212942D02*
X178851838Y-91117704D01*
X178851838Y-91117704D02*
X178899457Y-91070085D01*
X178899457Y-91070085D02*
X178994695Y-91022466D01*
X178994695Y-91022466D02*
X179137552Y-91022466D01*
X179137552Y-91022466D02*
X179232790Y-91070085D01*
X179232790Y-91070085D02*
X179280409Y-91117704D01*
X179280409Y-91117704D02*
X179328028Y-91212942D01*
X179328028Y-91212942D02*
X179328028Y-91593894D01*
X178804219Y-90165323D02*
X178804219Y-90355799D01*
X178804219Y-90355799D02*
X178851838Y-90451037D01*
X178851838Y-90451037D02*
X178899457Y-90498656D01*
X178899457Y-90498656D02*
X179042314Y-90593894D01*
X179042314Y-90593894D02*
X179232790Y-90641513D01*
X179232790Y-90641513D02*
X179613742Y-90641513D01*
X179613742Y-90641513D02*
X179708980Y-90593894D01*
X179708980Y-90593894D02*
X179756600Y-90546275D01*
X179756600Y-90546275D02*
X179804219Y-90451037D01*
X179804219Y-90451037D02*
X179804219Y-90260561D01*
X179804219Y-90260561D02*
X179756600Y-90165323D01*
X179756600Y-90165323D02*
X179708980Y-90117704D01*
X179708980Y-90117704D02*
X179613742Y-90070085D01*
X179613742Y-90070085D02*
X179375647Y-90070085D01*
X179375647Y-90070085D02*
X179280409Y-90117704D01*
X179280409Y-90117704D02*
X179232790Y-90165323D01*
X179232790Y-90165323D02*
X179185171Y-90260561D01*
X179185171Y-90260561D02*
X179185171Y-90451037D01*
X179185171Y-90451037D02*
X179232790Y-90546275D01*
X179232790Y-90546275D02*
X179280409Y-90593894D01*
X179280409Y-90593894D02*
X179375647Y-90641513D01*
X177188019Y-96381866D02*
X176711828Y-96715199D01*
X177188019Y-96953294D02*
X176188019Y-96953294D01*
X176188019Y-96953294D02*
X176188019Y-96572342D01*
X176188019Y-96572342D02*
X176235638Y-96477104D01*
X176235638Y-96477104D02*
X176283257Y-96429485D01*
X176283257Y-96429485D02*
X176378495Y-96381866D01*
X176378495Y-96381866D02*
X176521352Y-96381866D01*
X176521352Y-96381866D02*
X176616590Y-96429485D01*
X176616590Y-96429485D02*
X176664209Y-96477104D01*
X176664209Y-96477104D02*
X176711828Y-96572342D01*
X176711828Y-96572342D02*
X176711828Y-96953294D01*
X176188019Y-96048532D02*
X176188019Y-95381866D01*
X176188019Y-95381866D02*
X177188019Y-95810437D01*
X173372542Y-76788180D02*
X173324923Y-76835800D01*
X173324923Y-76835800D02*
X173182066Y-76883419D01*
X173182066Y-76883419D02*
X173086828Y-76883419D01*
X173086828Y-76883419D02*
X172943971Y-76835800D01*
X172943971Y-76835800D02*
X172848733Y-76740561D01*
X172848733Y-76740561D02*
X172801114Y-76645323D01*
X172801114Y-76645323D02*
X172753495Y-76454847D01*
X172753495Y-76454847D02*
X172753495Y-76311990D01*
X172753495Y-76311990D02*
X172801114Y-76121514D01*
X172801114Y-76121514D02*
X172848733Y-76026276D01*
X172848733Y-76026276D02*
X172943971Y-75931038D01*
X172943971Y-75931038D02*
X173086828Y-75883419D01*
X173086828Y-75883419D02*
X173182066Y-75883419D01*
X173182066Y-75883419D02*
X173324923Y-75931038D01*
X173324923Y-75931038D02*
X173372542Y-75978657D01*
X174324923Y-76883419D02*
X173753495Y-76883419D01*
X174039209Y-76883419D02*
X174039209Y-75883419D01*
X174039209Y-75883419D02*
X173943971Y-76026276D01*
X173943971Y-76026276D02*
X173848733Y-76121514D01*
X173848733Y-76121514D02*
X173753495Y-76169133D01*
X175182066Y-76216752D02*
X175182066Y-76883419D01*
X174943971Y-75835800D02*
X174705876Y-76550085D01*
X174705876Y-76550085D02*
X175324923Y-76550085D01*
X173278895Y-75781819D02*
X173278895Y-76591342D01*
X173278895Y-76591342D02*
X173326514Y-76686580D01*
X173326514Y-76686580D02*
X173374133Y-76734200D01*
X173374133Y-76734200D02*
X173469371Y-76781819D01*
X173469371Y-76781819D02*
X173659847Y-76781819D01*
X173659847Y-76781819D02*
X173755085Y-76734200D01*
X173755085Y-76734200D02*
X173802704Y-76686580D01*
X173802704Y-76686580D02*
X173850323Y-76591342D01*
X173850323Y-76591342D02*
X173850323Y-75781819D01*
X174278895Y-75877057D02*
X174326514Y-75829438D01*
X174326514Y-75829438D02*
X174421752Y-75781819D01*
X174421752Y-75781819D02*
X174659847Y-75781819D01*
X174659847Y-75781819D02*
X174755085Y-75829438D01*
X174755085Y-75829438D02*
X174802704Y-75877057D01*
X174802704Y-75877057D02*
X174850323Y-75972295D01*
X174850323Y-75972295D02*
X174850323Y-76067533D01*
X174850323Y-76067533D02*
X174802704Y-76210390D01*
X174802704Y-76210390D02*
X174231276Y-76781819D01*
X174231276Y-76781819D02*
X174850323Y-76781819D01*
X176010219Y-113555133D02*
X176724504Y-113555133D01*
X176724504Y-113555133D02*
X176867361Y-113602752D01*
X176867361Y-113602752D02*
X176962600Y-113697990D01*
X176962600Y-113697990D02*
X177010219Y-113840847D01*
X177010219Y-113840847D02*
X177010219Y-113936085D01*
X176343552Y-112650371D02*
X177010219Y-112650371D01*
X175962600Y-112888466D02*
X176676885Y-113126561D01*
X176676885Y-113126561D02*
X176676885Y-112507514D01*
X178397067Y-109474800D02*
X178539924Y-109522419D01*
X178539924Y-109522419D02*
X178778019Y-109522419D01*
X178778019Y-109522419D02*
X178873257Y-109474800D01*
X178873257Y-109474800D02*
X178920876Y-109427180D01*
X178920876Y-109427180D02*
X178968495Y-109331942D01*
X178968495Y-109331942D02*
X178968495Y-109236704D01*
X178968495Y-109236704D02*
X178920876Y-109141466D01*
X178920876Y-109141466D02*
X178873257Y-109093847D01*
X178873257Y-109093847D02*
X178778019Y-109046228D01*
X178778019Y-109046228D02*
X178587543Y-108998609D01*
X178587543Y-108998609D02*
X178492305Y-108950990D01*
X178492305Y-108950990D02*
X178444686Y-108903371D01*
X178444686Y-108903371D02*
X178397067Y-108808133D01*
X178397067Y-108808133D02*
X178397067Y-108712895D01*
X178397067Y-108712895D02*
X178444686Y-108617657D01*
X178444686Y-108617657D02*
X178492305Y-108570038D01*
X178492305Y-108570038D02*
X178587543Y-108522419D01*
X178587543Y-108522419D02*
X178825638Y-108522419D01*
X178825638Y-108522419D02*
X178968495Y-108570038D01*
X179301829Y-108522419D02*
X179539924Y-109522419D01*
X179539924Y-109522419D02*
X179730400Y-108808133D01*
X179730400Y-108808133D02*
X179920876Y-109522419D01*
X179920876Y-109522419D02*
X180158972Y-108522419D01*
X181063733Y-109522419D02*
X180492305Y-109522419D01*
X180778019Y-109522419D02*
X180778019Y-108522419D01*
X180778019Y-108522419D02*
X180682781Y-108665276D01*
X180682781Y-108665276D02*
X180587543Y-108760514D01*
X180587543Y-108760514D02*
X180492305Y-108808133D01*
X181537780Y-76087266D02*
X181585400Y-76134885D01*
X181585400Y-76134885D02*
X181633019Y-76277742D01*
X181633019Y-76277742D02*
X181633019Y-76372980D01*
X181633019Y-76372980D02*
X181585400Y-76515837D01*
X181585400Y-76515837D02*
X181490161Y-76611075D01*
X181490161Y-76611075D02*
X181394923Y-76658694D01*
X181394923Y-76658694D02*
X181204447Y-76706313D01*
X181204447Y-76706313D02*
X181061590Y-76706313D01*
X181061590Y-76706313D02*
X180871114Y-76658694D01*
X180871114Y-76658694D02*
X180775876Y-76611075D01*
X180775876Y-76611075D02*
X180680638Y-76515837D01*
X180680638Y-76515837D02*
X180633019Y-76372980D01*
X180633019Y-76372980D02*
X180633019Y-76277742D01*
X180633019Y-76277742D02*
X180680638Y-76134885D01*
X180680638Y-76134885D02*
X180728257Y-76087266D01*
X180633019Y-75753932D02*
X180633019Y-75134885D01*
X180633019Y-75134885D02*
X181013971Y-75468218D01*
X181013971Y-75468218D02*
X181013971Y-75325361D01*
X181013971Y-75325361D02*
X181061590Y-75230123D01*
X181061590Y-75230123D02*
X181109209Y-75182504D01*
X181109209Y-75182504D02*
X181204447Y-75134885D01*
X181204447Y-75134885D02*
X181442542Y-75134885D01*
X181442542Y-75134885D02*
X181537780Y-75182504D01*
X181537780Y-75182504D02*
X181585400Y-75230123D01*
X181585400Y-75230123D02*
X181633019Y-75325361D01*
X181633019Y-75325361D02*
X181633019Y-75611075D01*
X181633019Y-75611075D02*
X181585400Y-75706313D01*
X181585400Y-75706313D02*
X181537780Y-75753932D01*
X174178933Y-88821419D02*
X173845600Y-88345228D01*
X173607505Y-88821419D02*
X173607505Y-87821419D01*
X173607505Y-87821419D02*
X173988457Y-87821419D01*
X173988457Y-87821419D02*
X174083695Y-87869038D01*
X174083695Y-87869038D02*
X174131314Y-87916657D01*
X174131314Y-87916657D02*
X174178933Y-88011895D01*
X174178933Y-88011895D02*
X174178933Y-88154752D01*
X174178933Y-88154752D02*
X174131314Y-88249990D01*
X174131314Y-88249990D02*
X174083695Y-88297609D01*
X174083695Y-88297609D02*
X173988457Y-88345228D01*
X173988457Y-88345228D02*
X173607505Y-88345228D01*
X175036076Y-88154752D02*
X175036076Y-88821419D01*
X174797981Y-87773800D02*
X174559886Y-88488085D01*
X174559886Y-88488085D02*
X175178933Y-88488085D01*
X177143580Y-97112057D02*
X177191200Y-97159676D01*
X177191200Y-97159676D02*
X177238819Y-97302533D01*
X177238819Y-97302533D02*
X177238819Y-97397771D01*
X177238819Y-97397771D02*
X177191200Y-97540628D01*
X177191200Y-97540628D02*
X177095961Y-97635866D01*
X177095961Y-97635866D02*
X177000723Y-97683485D01*
X177000723Y-97683485D02*
X176810247Y-97731104D01*
X176810247Y-97731104D02*
X176667390Y-97731104D01*
X176667390Y-97731104D02*
X176476914Y-97683485D01*
X176476914Y-97683485D02*
X176381676Y-97635866D01*
X176381676Y-97635866D02*
X176286438Y-97540628D01*
X176286438Y-97540628D02*
X176238819Y-97397771D01*
X176238819Y-97397771D02*
X176238819Y-97302533D01*
X176238819Y-97302533D02*
X176286438Y-97159676D01*
X176286438Y-97159676D02*
X176334057Y-97112057D01*
X177238819Y-96159676D02*
X177238819Y-96731104D01*
X177238819Y-96445390D02*
X176238819Y-96445390D01*
X176238819Y-96445390D02*
X176381676Y-96540628D01*
X176381676Y-96540628D02*
X176476914Y-96635866D01*
X176476914Y-96635866D02*
X176524533Y-96731104D01*
X176334057Y-95778723D02*
X176286438Y-95731104D01*
X176286438Y-95731104D02*
X176238819Y-95635866D01*
X176238819Y-95635866D02*
X176238819Y-95397771D01*
X176238819Y-95397771D02*
X176286438Y-95302533D01*
X176286438Y-95302533D02*
X176334057Y-95254914D01*
X176334057Y-95254914D02*
X176429295Y-95207295D01*
X176429295Y-95207295D02*
X176524533Y-95207295D01*
X176524533Y-95207295D02*
X176667390Y-95254914D01*
X176667390Y-95254914D02*
X177238819Y-95826342D01*
X177238819Y-95826342D02*
X177238819Y-95207295D01*
X185137466Y-64580419D02*
X185137466Y-65294704D01*
X185137466Y-65294704D02*
X185089847Y-65437561D01*
X185089847Y-65437561D02*
X184994609Y-65532800D01*
X184994609Y-65532800D02*
X184851752Y-65580419D01*
X184851752Y-65580419D02*
X184756514Y-65580419D01*
X185518419Y-64580419D02*
X186137466Y-64580419D01*
X186137466Y-64580419D02*
X185804133Y-64961371D01*
X185804133Y-64961371D02*
X185946990Y-64961371D01*
X185946990Y-64961371D02*
X186042228Y-65008990D01*
X186042228Y-65008990D02*
X186089847Y-65056609D01*
X186089847Y-65056609D02*
X186137466Y-65151847D01*
X186137466Y-65151847D02*
X186137466Y-65389942D01*
X186137466Y-65389942D02*
X186089847Y-65485180D01*
X186089847Y-65485180D02*
X186042228Y-65532800D01*
X186042228Y-65532800D02*
X185946990Y-65580419D01*
X185946990Y-65580419D02*
X185661276Y-65580419D01*
X185661276Y-65580419D02*
X185566038Y-65532800D01*
X185566038Y-65532800D02*
X185518419Y-65485180D01*
X174933780Y-105138457D02*
X174981400Y-105186076D01*
X174981400Y-105186076D02*
X175029019Y-105328933D01*
X175029019Y-105328933D02*
X175029019Y-105424171D01*
X175029019Y-105424171D02*
X174981400Y-105567028D01*
X174981400Y-105567028D02*
X174886161Y-105662266D01*
X174886161Y-105662266D02*
X174790923Y-105709885D01*
X174790923Y-105709885D02*
X174600447Y-105757504D01*
X174600447Y-105757504D02*
X174457590Y-105757504D01*
X174457590Y-105757504D02*
X174267114Y-105709885D01*
X174267114Y-105709885D02*
X174171876Y-105662266D01*
X174171876Y-105662266D02*
X174076638Y-105567028D01*
X174076638Y-105567028D02*
X174029019Y-105424171D01*
X174029019Y-105424171D02*
X174029019Y-105328933D01*
X174029019Y-105328933D02*
X174076638Y-105186076D01*
X174076638Y-105186076D02*
X174124257Y-105138457D01*
X175029019Y-104186076D02*
X175029019Y-104757504D01*
X175029019Y-104471790D02*
X174029019Y-104471790D01*
X174029019Y-104471790D02*
X174171876Y-104567028D01*
X174171876Y-104567028D02*
X174267114Y-104662266D01*
X174267114Y-104662266D02*
X174314733Y-104757504D01*
X174029019Y-103281314D02*
X174029019Y-103757504D01*
X174029019Y-103757504D02*
X174505209Y-103805123D01*
X174505209Y-103805123D02*
X174457590Y-103757504D01*
X174457590Y-103757504D02*
X174409971Y-103662266D01*
X174409971Y-103662266D02*
X174409971Y-103424171D01*
X174409971Y-103424171D02*
X174457590Y-103328933D01*
X174457590Y-103328933D02*
X174505209Y-103281314D01*
X174505209Y-103281314D02*
X174600447Y-103233695D01*
X174600447Y-103233695D02*
X174838542Y-103233695D01*
X174838542Y-103233695D02*
X174933780Y-103281314D01*
X174933780Y-103281314D02*
X174981400Y-103328933D01*
X174981400Y-103328933D02*
X175029019Y-103424171D01*
X175029019Y-103424171D02*
X175029019Y-103662266D01*
X175029019Y-103662266D02*
X174981400Y-103757504D01*
X174981400Y-103757504D02*
X174933780Y-103805123D01*
X181690180Y-76112666D02*
X181737800Y-76160285D01*
X181737800Y-76160285D02*
X181785419Y-76303142D01*
X181785419Y-76303142D02*
X181785419Y-76398380D01*
X181785419Y-76398380D02*
X181737800Y-76541237D01*
X181737800Y-76541237D02*
X181642561Y-76636475D01*
X181642561Y-76636475D02*
X181547323Y-76684094D01*
X181547323Y-76684094D02*
X181356847Y-76731713D01*
X181356847Y-76731713D02*
X181213990Y-76731713D01*
X181213990Y-76731713D02*
X181023514Y-76684094D01*
X181023514Y-76684094D02*
X180928276Y-76636475D01*
X180928276Y-76636475D02*
X180833038Y-76541237D01*
X180833038Y-76541237D02*
X180785419Y-76398380D01*
X180785419Y-76398380D02*
X180785419Y-76303142D01*
X180785419Y-76303142D02*
X180833038Y-76160285D01*
X180833038Y-76160285D02*
X180880657Y-76112666D01*
X181785419Y-75160285D02*
X181785419Y-75731713D01*
X181785419Y-75445999D02*
X180785419Y-75445999D01*
X180785419Y-75445999D02*
X180928276Y-75541237D01*
X180928276Y-75541237D02*
X181023514Y-75636475D01*
X181023514Y-75636475D02*
X181071133Y-75731713D01*
X175810942Y-96422380D02*
X175763323Y-96470000D01*
X175763323Y-96470000D02*
X175620466Y-96517619D01*
X175620466Y-96517619D02*
X175525228Y-96517619D01*
X175525228Y-96517619D02*
X175382371Y-96470000D01*
X175382371Y-96470000D02*
X175287133Y-96374761D01*
X175287133Y-96374761D02*
X175239514Y-96279523D01*
X175239514Y-96279523D02*
X175191895Y-96089047D01*
X175191895Y-96089047D02*
X175191895Y-95946190D01*
X175191895Y-95946190D02*
X175239514Y-95755714D01*
X175239514Y-95755714D02*
X175287133Y-95660476D01*
X175287133Y-95660476D02*
X175382371Y-95565238D01*
X175382371Y-95565238D02*
X175525228Y-95517619D01*
X175525228Y-95517619D02*
X175620466Y-95517619D01*
X175620466Y-95517619D02*
X175763323Y-95565238D01*
X175763323Y-95565238D02*
X175810942Y-95612857D01*
X176763323Y-96517619D02*
X176191895Y-96517619D01*
X176477609Y-96517619D02*
X176477609Y-95517619D01*
X176477609Y-95517619D02*
X176382371Y-95660476D01*
X176382371Y-95660476D02*
X176287133Y-95755714D01*
X176287133Y-95755714D02*
X176191895Y-95803333D01*
X177382371Y-95517619D02*
X177477609Y-95517619D01*
X177477609Y-95517619D02*
X177572847Y-95565238D01*
X177572847Y-95565238D02*
X177620466Y-95612857D01*
X177620466Y-95612857D02*
X177668085Y-95708095D01*
X177668085Y-95708095D02*
X177715704Y-95898571D01*
X177715704Y-95898571D02*
X177715704Y-96136666D01*
X177715704Y-96136666D02*
X177668085Y-96327142D01*
X177668085Y-96327142D02*
X177620466Y-96422380D01*
X177620466Y-96422380D02*
X177572847Y-96470000D01*
X177572847Y-96470000D02*
X177477609Y-96517619D01*
X177477609Y-96517619D02*
X177382371Y-96517619D01*
X177382371Y-96517619D02*
X177287133Y-96470000D01*
X177287133Y-96470000D02*
X177239514Y-96422380D01*
X177239514Y-96422380D02*
X177191895Y-96327142D01*
X177191895Y-96327142D02*
X177144276Y-96136666D01*
X177144276Y-96136666D02*
X177144276Y-95898571D01*
X177144276Y-95898571D02*
X177191895Y-95708095D01*
X177191895Y-95708095D02*
X177239514Y-95612857D01*
X177239514Y-95612857D02*
X177287133Y-95565238D01*
X177287133Y-95565238D02*
X177382371Y-95517619D01*
X174800419Y-88533266D02*
X174324228Y-88866599D01*
X174800419Y-89104694D02*
X173800419Y-89104694D01*
X173800419Y-89104694D02*
X173800419Y-88723742D01*
X173800419Y-88723742D02*
X173848038Y-88628504D01*
X173848038Y-88628504D02*
X173895657Y-88580885D01*
X173895657Y-88580885D02*
X173990895Y-88533266D01*
X173990895Y-88533266D02*
X174133752Y-88533266D01*
X174133752Y-88533266D02*
X174228990Y-88580885D01*
X174228990Y-88580885D02*
X174276609Y-88628504D01*
X174276609Y-88628504D02*
X174324228Y-88723742D01*
X174324228Y-88723742D02*
X174324228Y-89104694D01*
X173800419Y-87628504D02*
X173800419Y-88104694D01*
X173800419Y-88104694D02*
X174276609Y-88152313D01*
X174276609Y-88152313D02*
X174228990Y-88104694D01*
X174228990Y-88104694D02*
X174181371Y-88009456D01*
X174181371Y-88009456D02*
X174181371Y-87771361D01*
X174181371Y-87771361D02*
X174228990Y-87676123D01*
X174228990Y-87676123D02*
X174276609Y-87628504D01*
X174276609Y-87628504D02*
X174371847Y-87580885D01*
X174371847Y-87580885D02*
X174609942Y-87580885D01*
X174609942Y-87580885D02*
X174705180Y-87628504D01*
X174705180Y-87628504D02*
X174752800Y-87676123D01*
X174752800Y-87676123D02*
X174800419Y-87771361D01*
X174800419Y-87771361D02*
X174800419Y-88009456D01*
X174800419Y-88009456D02*
X174752800Y-88104694D01*
X174752800Y-88104694D02*
X174705180Y-88152313D01*
X174825819Y-88812666D02*
X174349628Y-89145999D01*
X174825819Y-89384094D02*
X173825819Y-89384094D01*
X173825819Y-89384094D02*
X173825819Y-89003142D01*
X173825819Y-89003142D02*
X173873438Y-88907904D01*
X173873438Y-88907904D02*
X173921057Y-88860285D01*
X173921057Y-88860285D02*
X174016295Y-88812666D01*
X174016295Y-88812666D02*
X174159152Y-88812666D01*
X174159152Y-88812666D02*
X174254390Y-88860285D01*
X174254390Y-88860285D02*
X174302009Y-88907904D01*
X174302009Y-88907904D02*
X174349628Y-89003142D01*
X174349628Y-89003142D02*
X174349628Y-89384094D01*
X174825819Y-87860285D02*
X174825819Y-88431713D01*
X174825819Y-88145999D02*
X173825819Y-88145999D01*
X173825819Y-88145999D02*
X173968676Y-88241237D01*
X173968676Y-88241237D02*
X174063914Y-88336475D01*
X174063914Y-88336475D02*
X174111533Y-88431713D01*
X176069666Y-66383819D02*
X176069666Y-67098104D01*
X176069666Y-67098104D02*
X176022047Y-67240961D01*
X176022047Y-67240961D02*
X175926809Y-67336200D01*
X175926809Y-67336200D02*
X175783952Y-67383819D01*
X175783952Y-67383819D02*
X175688714Y-67383819D01*
X177069666Y-67383819D02*
X176498238Y-67383819D01*
X176783952Y-67383819D02*
X176783952Y-66383819D01*
X176783952Y-66383819D02*
X176688714Y-66526676D01*
X176688714Y-66526676D02*
X176593476Y-66621914D01*
X176593476Y-66621914D02*
X176498238Y-66669533D01*
X174978219Y-88761866D02*
X174502028Y-89095199D01*
X174978219Y-89333294D02*
X173978219Y-89333294D01*
X173978219Y-89333294D02*
X173978219Y-88952342D01*
X173978219Y-88952342D02*
X174025838Y-88857104D01*
X174025838Y-88857104D02*
X174073457Y-88809485D01*
X174073457Y-88809485D02*
X174168695Y-88761866D01*
X174168695Y-88761866D02*
X174311552Y-88761866D01*
X174311552Y-88761866D02*
X174406790Y-88809485D01*
X174406790Y-88809485D02*
X174454409Y-88857104D01*
X174454409Y-88857104D02*
X174502028Y-88952342D01*
X174502028Y-88952342D02*
X174502028Y-89333294D01*
X174073457Y-88380913D02*
X174025838Y-88333294D01*
X174025838Y-88333294D02*
X173978219Y-88238056D01*
X173978219Y-88238056D02*
X173978219Y-87999961D01*
X173978219Y-87999961D02*
X174025838Y-87904723D01*
X174025838Y-87904723D02*
X174073457Y-87857104D01*
X174073457Y-87857104D02*
X174168695Y-87809485D01*
X174168695Y-87809485D02*
X174263933Y-87809485D01*
X174263933Y-87809485D02*
X174406790Y-87857104D01*
X174406790Y-87857104D02*
X174978219Y-88428532D01*
X174978219Y-88428532D02*
X174978219Y-87809485D01*
X179607380Y-80156466D02*
X179655000Y-80204085D01*
X179655000Y-80204085D02*
X179702619Y-80346942D01*
X179702619Y-80346942D02*
X179702619Y-80442180D01*
X179702619Y-80442180D02*
X179655000Y-80585037D01*
X179655000Y-80585037D02*
X179559761Y-80680275D01*
X179559761Y-80680275D02*
X179464523Y-80727894D01*
X179464523Y-80727894D02*
X179274047Y-80775513D01*
X179274047Y-80775513D02*
X179131190Y-80775513D01*
X179131190Y-80775513D02*
X178940714Y-80727894D01*
X178940714Y-80727894D02*
X178845476Y-80680275D01*
X178845476Y-80680275D02*
X178750238Y-80585037D01*
X178750238Y-80585037D02*
X178702619Y-80442180D01*
X178702619Y-80442180D02*
X178702619Y-80346942D01*
X178702619Y-80346942D02*
X178750238Y-80204085D01*
X178750238Y-80204085D02*
X178797857Y-80156466D01*
X179702619Y-79680275D02*
X179702619Y-79489799D01*
X179702619Y-79489799D02*
X179655000Y-79394561D01*
X179655000Y-79394561D02*
X179607380Y-79346942D01*
X179607380Y-79346942D02*
X179464523Y-79251704D01*
X179464523Y-79251704D02*
X179274047Y-79204085D01*
X179274047Y-79204085D02*
X178893095Y-79204085D01*
X178893095Y-79204085D02*
X178797857Y-79251704D01*
X178797857Y-79251704D02*
X178750238Y-79299323D01*
X178750238Y-79299323D02*
X178702619Y-79394561D01*
X178702619Y-79394561D02*
X178702619Y-79585037D01*
X178702619Y-79585037D02*
X178750238Y-79680275D01*
X178750238Y-79680275D02*
X178797857Y-79727894D01*
X178797857Y-79727894D02*
X178893095Y-79775513D01*
X178893095Y-79775513D02*
X179131190Y-79775513D01*
X179131190Y-79775513D02*
X179226428Y-79727894D01*
X179226428Y-79727894D02*
X179274047Y-79680275D01*
X179274047Y-79680275D02*
X179321666Y-79585037D01*
X179321666Y-79585037D02*
X179321666Y-79394561D01*
X179321666Y-79394561D02*
X179274047Y-79299323D01*
X179274047Y-79299323D02*
X179226428Y-79251704D01*
X179226428Y-79251704D02*
X179131190Y-79204085D01*
X181300780Y-76138066D02*
X181348400Y-76185685D01*
X181348400Y-76185685D02*
X181396019Y-76328542D01*
X181396019Y-76328542D02*
X181396019Y-76423780D01*
X181396019Y-76423780D02*
X181348400Y-76566637D01*
X181348400Y-76566637D02*
X181253161Y-76661875D01*
X181253161Y-76661875D02*
X181157923Y-76709494D01*
X181157923Y-76709494D02*
X180967447Y-76757113D01*
X180967447Y-76757113D02*
X180824590Y-76757113D01*
X180824590Y-76757113D02*
X180634114Y-76709494D01*
X180634114Y-76709494D02*
X180538876Y-76661875D01*
X180538876Y-76661875D02*
X180443638Y-76566637D01*
X180443638Y-76566637D02*
X180396019Y-76423780D01*
X180396019Y-76423780D02*
X180396019Y-76328542D01*
X180396019Y-76328542D02*
X180443638Y-76185685D01*
X180443638Y-76185685D02*
X180491257Y-76138066D01*
X180491257Y-75757113D02*
X180443638Y-75709494D01*
X180443638Y-75709494D02*
X180396019Y-75614256D01*
X180396019Y-75614256D02*
X180396019Y-75376161D01*
X180396019Y-75376161D02*
X180443638Y-75280923D01*
X180443638Y-75280923D02*
X180491257Y-75233304D01*
X180491257Y-75233304D02*
X180586495Y-75185685D01*
X180586495Y-75185685D02*
X180681733Y-75185685D01*
X180681733Y-75185685D02*
X180824590Y-75233304D01*
X180824590Y-75233304D02*
X181396019Y-75804732D01*
X181396019Y-75804732D02*
X181396019Y-75185685D01*
X181690180Y-76138066D02*
X181737800Y-76185685D01*
X181737800Y-76185685D02*
X181785419Y-76328542D01*
X181785419Y-76328542D02*
X181785419Y-76423780D01*
X181785419Y-76423780D02*
X181737800Y-76566637D01*
X181737800Y-76566637D02*
X181642561Y-76661875D01*
X181642561Y-76661875D02*
X181547323Y-76709494D01*
X181547323Y-76709494D02*
X181356847Y-76757113D01*
X181356847Y-76757113D02*
X181213990Y-76757113D01*
X181213990Y-76757113D02*
X181023514Y-76709494D01*
X181023514Y-76709494D02*
X180928276Y-76661875D01*
X180928276Y-76661875D02*
X180833038Y-76566637D01*
X180833038Y-76566637D02*
X180785419Y-76423780D01*
X180785419Y-76423780D02*
X180785419Y-76328542D01*
X180785419Y-76328542D02*
X180833038Y-76185685D01*
X180833038Y-76185685D02*
X180880657Y-76138066D01*
X181118752Y-75280923D02*
X181785419Y-75280923D01*
X180737800Y-75519018D02*
X181452085Y-75757113D01*
X181452085Y-75757113D02*
X181452085Y-75138066D01*
X175780895Y-95733419D02*
X175780895Y-96542942D01*
X175780895Y-96542942D02*
X175828514Y-96638180D01*
X175828514Y-96638180D02*
X175876133Y-96685800D01*
X175876133Y-96685800D02*
X175971371Y-96733419D01*
X175971371Y-96733419D02*
X176161847Y-96733419D01*
X176161847Y-96733419D02*
X176257085Y-96685800D01*
X176257085Y-96685800D02*
X176304704Y-96638180D01*
X176304704Y-96638180D02*
X176352323Y-96542942D01*
X176352323Y-96542942D02*
X176352323Y-95733419D01*
X177352323Y-96733419D02*
X176780895Y-96733419D01*
X177066609Y-96733419D02*
X177066609Y-95733419D01*
X177066609Y-95733419D02*
X176971371Y-95876276D01*
X176971371Y-95876276D02*
X176876133Y-95971514D01*
X176876133Y-95971514D02*
X176780895Y-96019133D01*
X175474333Y-104696419D02*
X175141000Y-104220228D01*
X174902905Y-104696419D02*
X174902905Y-103696419D01*
X174902905Y-103696419D02*
X175283857Y-103696419D01*
X175283857Y-103696419D02*
X175379095Y-103744038D01*
X175379095Y-103744038D02*
X175426714Y-103791657D01*
X175426714Y-103791657D02*
X175474333Y-103886895D01*
X175474333Y-103886895D02*
X175474333Y-104029752D01*
X175474333Y-104029752D02*
X175426714Y-104124990D01*
X175426714Y-104124990D02*
X175379095Y-104172609D01*
X175379095Y-104172609D02*
X175283857Y-104220228D01*
X175283857Y-104220228D02*
X174902905Y-104220228D01*
X175807667Y-103696419D02*
X176426714Y-103696419D01*
X176426714Y-103696419D02*
X176093381Y-104077371D01*
X176093381Y-104077371D02*
X176236238Y-104077371D01*
X176236238Y-104077371D02*
X176331476Y-104124990D01*
X176331476Y-104124990D02*
X176379095Y-104172609D01*
X176379095Y-104172609D02*
X176426714Y-104267847D01*
X176426714Y-104267847D02*
X176426714Y-104505942D01*
X176426714Y-104505942D02*
X176379095Y-104601180D01*
X176379095Y-104601180D02*
X176331476Y-104648800D01*
X176331476Y-104648800D02*
X176236238Y-104696419D01*
X176236238Y-104696419D02*
X175950524Y-104696419D01*
X175950524Y-104696419D02*
X175855286Y-104648800D01*
X175855286Y-104648800D02*
X175807667Y-104601180D01*
X173728142Y-88980180D02*
X173680523Y-89027800D01*
X173680523Y-89027800D02*
X173537666Y-89075419D01*
X173537666Y-89075419D02*
X173442428Y-89075419D01*
X173442428Y-89075419D02*
X173299571Y-89027800D01*
X173299571Y-89027800D02*
X173204333Y-88932561D01*
X173204333Y-88932561D02*
X173156714Y-88837323D01*
X173156714Y-88837323D02*
X173109095Y-88646847D01*
X173109095Y-88646847D02*
X173109095Y-88503990D01*
X173109095Y-88503990D02*
X173156714Y-88313514D01*
X173156714Y-88313514D02*
X173204333Y-88218276D01*
X173204333Y-88218276D02*
X173299571Y-88123038D01*
X173299571Y-88123038D02*
X173442428Y-88075419D01*
X173442428Y-88075419D02*
X173537666Y-88075419D01*
X173537666Y-88075419D02*
X173680523Y-88123038D01*
X173680523Y-88123038D02*
X173728142Y-88170657D01*
X174680523Y-89075419D02*
X174109095Y-89075419D01*
X174394809Y-89075419D02*
X174394809Y-88075419D01*
X174394809Y-88075419D02*
X174299571Y-88218276D01*
X174299571Y-88218276D02*
X174204333Y-88313514D01*
X174204333Y-88313514D02*
X174109095Y-88361133D01*
X175013857Y-88075419D02*
X175632904Y-88075419D01*
X175632904Y-88075419D02*
X175299571Y-88456371D01*
X175299571Y-88456371D02*
X175442428Y-88456371D01*
X175442428Y-88456371D02*
X175537666Y-88503990D01*
X175537666Y-88503990D02*
X175585285Y-88551609D01*
X175585285Y-88551609D02*
X175632904Y-88646847D01*
X175632904Y-88646847D02*
X175632904Y-88884942D01*
X175632904Y-88884942D02*
X175585285Y-88980180D01*
X175585285Y-88980180D02*
X175537666Y-89027800D01*
X175537666Y-89027800D02*
X175442428Y-89075419D01*
X175442428Y-89075419D02*
X175156714Y-89075419D01*
X175156714Y-89075419D02*
X175061476Y-89027800D01*
X175061476Y-89027800D02*
X175013857Y-88980180D01*
X173702742Y-88726180D02*
X173655123Y-88773800D01*
X173655123Y-88773800D02*
X173512266Y-88821419D01*
X173512266Y-88821419D02*
X173417028Y-88821419D01*
X173417028Y-88821419D02*
X173274171Y-88773800D01*
X173274171Y-88773800D02*
X173178933Y-88678561D01*
X173178933Y-88678561D02*
X173131314Y-88583323D01*
X173131314Y-88583323D02*
X173083695Y-88392847D01*
X173083695Y-88392847D02*
X173083695Y-88249990D01*
X173083695Y-88249990D02*
X173131314Y-88059514D01*
X173131314Y-88059514D02*
X173178933Y-87964276D01*
X173178933Y-87964276D02*
X173274171Y-87869038D01*
X173274171Y-87869038D02*
X173417028Y-87821419D01*
X173417028Y-87821419D02*
X173512266Y-87821419D01*
X173512266Y-87821419D02*
X173655123Y-87869038D01*
X173655123Y-87869038D02*
X173702742Y-87916657D01*
X174655123Y-88821419D02*
X174083695Y-88821419D01*
X174369409Y-88821419D02*
X174369409Y-87821419D01*
X174369409Y-87821419D02*
X174274171Y-87964276D01*
X174274171Y-87964276D02*
X174178933Y-88059514D01*
X174178933Y-88059514D02*
X174083695Y-88107133D01*
X174988457Y-87821419D02*
X175655123Y-87821419D01*
X175655123Y-87821419D02*
X175226552Y-88821419D01*
X181563180Y-76112666D02*
X181610800Y-76160285D01*
X181610800Y-76160285D02*
X181658419Y-76303142D01*
X181658419Y-76303142D02*
X181658419Y-76398380D01*
X181658419Y-76398380D02*
X181610800Y-76541237D01*
X181610800Y-76541237D02*
X181515561Y-76636475D01*
X181515561Y-76636475D02*
X181420323Y-76684094D01*
X181420323Y-76684094D02*
X181229847Y-76731713D01*
X181229847Y-76731713D02*
X181086990Y-76731713D01*
X181086990Y-76731713D02*
X180896514Y-76684094D01*
X180896514Y-76684094D02*
X180801276Y-76636475D01*
X180801276Y-76636475D02*
X180706038Y-76541237D01*
X180706038Y-76541237D02*
X180658419Y-76398380D01*
X180658419Y-76398380D02*
X180658419Y-76303142D01*
X180658419Y-76303142D02*
X180706038Y-76160285D01*
X180706038Y-76160285D02*
X180753657Y-76112666D01*
X181086990Y-75541237D02*
X181039371Y-75636475D01*
X181039371Y-75636475D02*
X180991752Y-75684094D01*
X180991752Y-75684094D02*
X180896514Y-75731713D01*
X180896514Y-75731713D02*
X180848895Y-75731713D01*
X180848895Y-75731713D02*
X180753657Y-75684094D01*
X180753657Y-75684094D02*
X180706038Y-75636475D01*
X180706038Y-75636475D02*
X180658419Y-75541237D01*
X180658419Y-75541237D02*
X180658419Y-75350761D01*
X180658419Y-75350761D02*
X180706038Y-75255523D01*
X180706038Y-75255523D02*
X180753657Y-75207904D01*
X180753657Y-75207904D02*
X180848895Y-75160285D01*
X180848895Y-75160285D02*
X180896514Y-75160285D01*
X180896514Y-75160285D02*
X180991752Y-75207904D01*
X180991752Y-75207904D02*
X181039371Y-75255523D01*
X181039371Y-75255523D02*
X181086990Y-75350761D01*
X181086990Y-75350761D02*
X181086990Y-75541237D01*
X181086990Y-75541237D02*
X181134609Y-75636475D01*
X181134609Y-75636475D02*
X181182228Y-75684094D01*
X181182228Y-75684094D02*
X181277466Y-75731713D01*
X181277466Y-75731713D02*
X181467942Y-75731713D01*
X181467942Y-75731713D02*
X181563180Y-75684094D01*
X181563180Y-75684094D02*
X181610800Y-75636475D01*
X181610800Y-75636475D02*
X181658419Y-75541237D01*
X181658419Y-75541237D02*
X181658419Y-75350761D01*
X181658419Y-75350761D02*
X181610800Y-75255523D01*
X181610800Y-75255523D02*
X181563180Y-75207904D01*
X181563180Y-75207904D02*
X181467942Y-75160285D01*
X181467942Y-75160285D02*
X181277466Y-75160285D01*
X181277466Y-75160285D02*
X181182228Y-75207904D01*
X181182228Y-75207904D02*
X181134609Y-75255523D01*
X181134609Y-75255523D02*
X181086990Y-75350761D01*
%TO.C,C5*%
D11*
X180081600Y-77966564D02*
X180081600Y-78182236D01*
X180801600Y-77966564D02*
X180801600Y-78182236D01*
%TO.C,C7*%
X181300800Y-79975764D02*
X181300800Y-80191436D01*
X182020800Y-79975764D02*
X182020800Y-80191436D01*
%TO.C,C11*%
X171166200Y-84395364D02*
X171166200Y-84611036D01*
X171886200Y-84395364D02*
X171886200Y-84611036D01*
%TO.C,Y1*%
X177835800Y-102822800D02*
X173715800Y-102822800D01*
X177835800Y-106242800D02*
X177835800Y-102822800D01*
%TO.C,D2*%
X170656600Y-107820000D02*
X170656600Y-111220000D01*
X170656600Y-107820000D02*
X171256600Y-107220000D01*
X176256600Y-107220000D02*
X171256600Y-107220000D01*
X176256600Y-111220000D02*
X170656600Y-111220000D01*
X176256600Y-111220000D02*
X176256600Y-107220000D01*
%TO.C,J2*%
X166285400Y-63821800D02*
X167665400Y-63821800D01*
X166285400Y-65201800D02*
X166285400Y-63821800D01*
X166285400Y-66471800D02*
X166285400Y-114841800D01*
X166285400Y-66471800D02*
X169045400Y-66471800D01*
X166285400Y-114841800D02*
X169045400Y-114841800D01*
X169045400Y-66471800D02*
X169045400Y-114841800D01*
%TO.C,C16*%
X178075000Y-104362364D02*
X178075000Y-104578036D01*
X178795000Y-104362364D02*
X178795000Y-104578036D01*
%TO.C,U3*%
X173160032Y-87289100D02*
X175955600Y-87289100D01*
X175955600Y-89559100D02*
X172735600Y-89559100D01*
X172865600Y-87284100D02*
X172725600Y-87094100D01*
X173005600Y-87094100D01*
X172865600Y-87284100D01*
G36*
X172865600Y-87284100D02*
G01*
X172725600Y-87094100D01*
X173005600Y-87094100D01*
X172865600Y-87284100D01*
G37*
%TO.C,C6*%
X178887800Y-77971764D02*
X178887800Y-78187436D01*
X179607800Y-77971764D02*
X179607800Y-78187436D01*
%TO.C,R6*%
X177826400Y-90727559D02*
X177826400Y-91034841D01*
X178586400Y-90727559D02*
X178586400Y-91034841D01*
%TO.C,R7*%
X176810400Y-90725759D02*
X176810400Y-91033041D01*
X177570400Y-90725759D02*
X177570400Y-91033041D01*
%TO.C,C14*%
X175865200Y-76536436D02*
X175865200Y-76320764D01*
X176585200Y-76536436D02*
X176585200Y-76320764D01*
%TO.C,U2*%
X172455400Y-75668600D02*
X173455400Y-75668600D01*
X172455400Y-77188600D02*
X172455400Y-75668600D01*
X172505400Y-77188600D02*
X172455400Y-77188600D01*
X174405400Y-77188600D02*
X173625400Y-77188600D01*
X174575400Y-75668600D02*
X175575400Y-75668600D01*
X175575400Y-75668600D02*
X175575400Y-77188600D01*
X175575400Y-77188600D02*
X175525400Y-77188600D01*
X173965400Y-77968600D02*
X173635400Y-77728600D01*
X173965400Y-77488600D01*
X173965400Y-77968600D01*
G36*
X173965400Y-77968600D02*
G01*
X173635400Y-77728600D01*
X173965400Y-77488600D01*
X173965400Y-77968600D01*
G37*
%TO.C,J4*%
X172635400Y-114601800D02*
X172635400Y-113221800D01*
X174015400Y-114601800D02*
X172635400Y-114601800D01*
X175285400Y-111841800D02*
X180475400Y-111841800D01*
X175285400Y-114601800D02*
X175285400Y-111841800D01*
X175285400Y-114601800D02*
X180475400Y-114601800D01*
X180475400Y-114601800D02*
X180475400Y-111841800D01*
%TO.C,SW1*%
X177660400Y-107497600D02*
X181800400Y-107497600D01*
X177660400Y-107797600D02*
X177660400Y-107497600D01*
X177660400Y-110637600D02*
X177660400Y-110337600D01*
X181800400Y-107497600D02*
X181800400Y-107797600D01*
X181800400Y-110337600D02*
X181800400Y-110637600D01*
X181800400Y-110637600D02*
X177660400Y-110637600D01*
%TO.C,C3*%
X178887800Y-75883764D02*
X178887800Y-76099436D01*
X179607800Y-75883764D02*
X179607800Y-76099436D01*
%TO.C,R4*%
X175517241Y-85980000D02*
X175209959Y-85980000D01*
X175517241Y-86740000D02*
X175209959Y-86740000D01*
%TO.C,C12*%
X172385400Y-84372564D02*
X172385400Y-84588236D01*
X173105400Y-84372564D02*
X173105400Y-84588236D01*
%TO.C,J3*%
X184065400Y-63821800D02*
X185445400Y-63821800D01*
X184065400Y-65201800D02*
X184065400Y-63821800D01*
X184065400Y-66471800D02*
X184065400Y-114841800D01*
X184065400Y-66471800D02*
X186825400Y-66471800D01*
X184065400Y-114841800D02*
X186825400Y-114841800D01*
X186825400Y-66471800D02*
X186825400Y-114841800D01*
%TO.C,C15*%
X172791800Y-104578036D02*
X172791800Y-104362364D01*
X173511800Y-104578036D02*
X173511800Y-104362364D01*
%TO.C,C1*%
X181275400Y-75888964D02*
X181275400Y-76104636D01*
X181995400Y-75888964D02*
X181995400Y-76104636D01*
%TO.C,C10*%
X177795600Y-84273564D02*
X177795600Y-84489236D01*
X178515600Y-84273564D02*
X178515600Y-84489236D01*
%TO.C,R5*%
X170666200Y-88333259D02*
X170666200Y-88640541D01*
X171426200Y-88333259D02*
X171426200Y-88640541D01*
%TO.C,R1*%
X174575200Y-79807559D02*
X174575200Y-80114841D01*
X175335200Y-79807559D02*
X175335200Y-80114841D01*
%TO.C,J1*%
X171804600Y-64217800D02*
X171804600Y-62317800D01*
X171804600Y-68117800D02*
X171804600Y-66117800D01*
X181204600Y-62317800D02*
X171804600Y-62317800D01*
X181204600Y-64217800D02*
X181204600Y-62317800D01*
X181204600Y-68117800D02*
X181204600Y-66117800D01*
%TO.C,R2*%
X172797200Y-80087441D02*
X172797200Y-79780159D01*
X173557200Y-80087441D02*
X173557200Y-79780159D01*
%TO.C,C9*%
X178862400Y-80003764D02*
X178862400Y-80219436D01*
X179582400Y-80003764D02*
X179582400Y-80219436D01*
%TO.C,C2*%
X180081600Y-75883764D02*
X180081600Y-76099436D01*
X180801600Y-75883764D02*
X180801600Y-76099436D01*
%TO.C,C4*%
X181275400Y-77941164D02*
X181275400Y-78156836D01*
X181995400Y-77941164D02*
X181995400Y-78156836D01*
%TO.C,U1*%
X172932800Y-92668600D02*
X173582800Y-92668600D01*
X172932800Y-93318600D02*
X172932800Y-92668600D01*
X172932800Y-99888600D02*
X172932800Y-99238600D01*
X173582800Y-99888600D02*
X172932800Y-99888600D01*
X179502800Y-92668600D02*
X180152800Y-92668600D01*
X180152800Y-92668600D02*
X180152800Y-93318600D01*
X180152800Y-99238600D02*
X180152800Y-99888600D01*
X180152800Y-99888600D02*
X179502800Y-99888600D01*
X172402800Y-93678600D02*
X172072800Y-93918600D01*
X172072800Y-93438600D01*
X172402800Y-93678600D01*
G36*
X172402800Y-93678600D02*
G01*
X172072800Y-93918600D01*
X172072800Y-93438600D01*
X172402800Y-93678600D01*
G37*
%TO.C,R3*%
X175436559Y-101880400D02*
X175743841Y-101880400D01*
X175436559Y-102640400D02*
X175743841Y-102640400D01*
%TO.C,C13*%
X171166200Y-77196836D02*
X171166200Y-76981164D01*
X171886200Y-77196836D02*
X171886200Y-76981164D01*
%TO.C,C17*%
X173361236Y-86000000D02*
X173145564Y-86000000D01*
X173361236Y-86720000D02*
X173145564Y-86720000D01*
%TO.C,C8*%
X180081600Y-79973164D02*
X180081600Y-80188836D01*
X180801600Y-79973164D02*
X180801600Y-80188836D01*
%TD*%
M02*
